# xmcd CD database generated by RipIT
#
# Track frame offsets:
# 150
# 14377
# 41387
# 72492
# 83920
# 98145
# 109517
# 125435
# 138200
# 149197
# 162707
# 175672
# 189132
# 208950
# 220400
# 235165
# 247660
# 260567
# 272857
# 285295
#
# Disc length: 3982 seconds
#
# Revision: 0
# Processed by: cddbd v1.5.1PL0 Copyright (c) Steve Scherf et al.
# Submitted via: RipIT 3.3.3 www.suwald.com/ripit/ripit.html at Sat Apr 30 10:24:36 BST 2005
#
DISCID=260f8c14
DTITLE=Various Artist - Blues Box CD1
DYEAR=1900
DGENRE=Blues
TTITLE0=John Lee Hooker - Boogie Chillen
TTITLE1=Mississippi Fred McDowell - 61 Highway
TTITLE2=Billy Boy Arnold - Dirty Mother Fucker
TTITLE3=Earl Hooker - The Leading Brand
TTITLE4=T-Bone Walker - Come Back To Me Baby Blues
TTITLE5=Screamin' Jay Hawkins - Well I Tried
TTITLE6=Sonny Terry - Lonesome Train
TTITLE7=Wynonie Harris - Lollipop Mamma
TTITLE8=Champion Jack Dupre - My Baby's Gone
TTITLE9=Amos Milburn - Down The Road Apiece
TTITLE10=Big Bill Broonzy - C and A Blues
TTITLE11=Helen Humes - He May Be Your Man
TTITLE12=Red - Blood In My Eyes
TTITLE13=Jimmy Witherspoon - Bar Fly Blues
TTITLE14=Lonnie Johnson - The Last Call
TTITLE15=Joe Turner - Rebecca
TTITLE16=Sonny Boy Williamson - Decoration Day Blues No 2
TTITLE17=Muddy Waters - I Can't Be Satisfied
TTITLE18=Memphis Minnie - Ma Rainey
TTITLE19=Loghtnin' Hopkins - Katie Mae Blues
EXTD=
EXTT0=
EXTT1=
EXTT2=
EXTT3=
EXTT4=
EXTT5=
EXTT6=
EXTT7=
EXTT8=
EXTT9=
EXTT10=
EXTT11=
EXTT12=
EXTT13=
EXTT14=
EXTT15=
EXTT16=
EXTT17=
EXTT18=
EXTT19=
PLAYORDER=
